<svg id="visual" viewBox="0 0 960 540" width="960" height="540" xmlns="http://www.w3.org/2000/svg" xmlns:xlink="http://www.w3.org/1999/xlink" version="1.1"><path d="M0 150L22.8 167.3C45.7 184.7 91.3 219.3 137 223.3C182.7 227.3 228.3 200.7 274 172.5C319.7 144.3 365.3 114.7 411.2 113C457 111.3 503 137.7 548.8 145.8C594.7 154 640.3 144 686 145.5C731.7 147 777.3 160 823 174.3C868.7 188.7 914.3 204.3 937.2 212.2L960 220L960 0L937.2 0C914.3 0 868.7 0 823 0C777.3 0 731.7 0 686 0C640.3 0 594.7 0 548.8 0C503 0 457 0 411.2 0C365.3 0 319.7 0 274 0C228.3 0 182.7 0 137 0C91.3 0 45.7 0 22.8 0L0 0Z" fill="#111B21" stroke-linecap="round" stroke-linejoin="miter"></path></svg>